<?xml version="1.0" standalone="no"?>
<!DOCTYPE svg PUBLIC "-//W3C//DTD SVG 20010904//EN"
 "http://www.w3.org/TR/2001/REC-SVG-20010904/DTD/svg10.dtd">
<svg version="1.0" xmlns="http://www.w3.org/2000/svg"
 width="64.000000pt" height="64.000000pt" viewBox="0 0 64.000000 64.000000"
 preserveAspectRatio="xMidYMid meet">

<g transform="translate(0.000000,64.000000) scale(0.100000,-0.100000)"
fill="#000000" stroke="none">
<path d="M283 537 l-103 -61 -31 -93 c-20 -61 -38 -97 -50 -104 -16 -8 -19
-19 -17 -57 3 -43 5 -47 31 -50 44 -5 31 -22 -17 -22 -67 0 -99 -45 -60 -84
23 -24 365 -24 388 0 39 39 7 84 -60 84 -24 0 -44 5 -44 10 0 6 16 10 36 10
l37 0 -6 83 c-3 45 -11 95 -16 111 -11 27 -13 28 -71 24 -87 -5 -82 15 21 79
l67 42 48 -71 c27 -39 59 -85 72 -103 l22 -32 -20 -46 c-15 -32 -28 -49 -45
-53 -14 -3 -25 -10 -25 -15 0 -16 45 -39 78 -39 44 0 68 14 87 50 23 45 19 78
-16 113 -17 17 -37 47 -44 66 -23 66 -120 216 -141 218 -10 1 -65 -26 -121
-60z m132 23 c0 -8 -41 -39 -92 -69 l-92 -55 -18 -76 c-17 -69 -21 -75 -46
-78 -15 -2 -27 0 -27 5 0 12 49 156 58 169 11 17 196 124 207 121 6 -2 10 -10
10 -17z m105 -172 c0 -23 -25 0 -64 59 -35 51 -43 70 -34 80 9 11 20 -2 54
-59 24 -40 44 -76 44 -80z m-280 -63 c0 -31 -4 -45 -14 -45 -11 0 -11 9 -3 45
6 25 12 45 14 45 2 0 3 -20 3 -45z m114 29 c4 -10 9 -50 13 -90 l6 -74 -57 0
-56 0 0 90 0 90 44 0 c32 0 46 -5 50 -16z m230 -66 c23 -32 20 -65 -9 -93 -25
-26 -88 -35 -100 -15 -3 6 1 10 10 10 11 0 26 22 42 60 15 33 30 60 34 60 4 0
15 -10 23 -22z m-344 -63 l0 -35 -70 0 -70 0 0 35 0 35 70 0 70 0 0 -35z m60
-65 c0 -6 -30 -10 -70 -10 -40 0 -70 4 -70 10 0 6 30 10 70 10 40 0 70 -4 70
-10z m-205 -60 c0 -18 -6 -26 -23 -28 -13 -2 -25 3 -28 12 -10 26 4 48 28 44
17 -2 23 -10 23 -28z m89 18 c5 -10 7 -10 12 0 3 6 18 12 34 12 16 0 31 -6 34
-12 5 -10 7 -10 12 0 3 6 20 12 37 12 29 0 32 -3 32 -30 0 -21 -5 -30 -17 -30
-9 0 -19 6 -22 13 -5 9 -7 10 -12 0 -7 -17 -51 -17 -58 0 -5 10 -7 10 -12 0
-7 -17 -51 -17 -58 0 -5 10 -7 10 -12 0 -3 -7 -13 -13 -22 -13 -12 0 -17 9
-17 30 0 27 3 30 32 30 17 0 34 -6 37 -12z m231 -18 c0 -18 -6 -26 -23 -28
-24 -4 -38 18 -28 44 3 9 15 14 28 12 17 -2 23 -10 23 -28z"/>
<path d="M274 347 c-3 -8 -4 -43 -2 -78 l3 -64 38 -3 c47 -4 53 9 41 91 -9 61
-10 62 -42 65 -21 2 -34 -2 -38 -11z m56 -26 c0 -11 3 -26 6 -35 5 -12 0 -16
-20 -16 -23 0 -26 4 -26 35 0 28 4 35 20 35 13 0 20 -7 20 -19z m10 -86 c0 -9
-9 -15 -25 -15 -16 0 -25 6 -25 15 0 9 9 15 25 15 16 0 25 -6 25 -15z"/>
<path d="M120 240 c0 -5 9 -10 20 -10 11 0 20 5 20 10 0 6 -9 10 -20 10 -11 0
-20 -4 -20 -10z"/>
<path d="M120 210 c0 -5 5 -10 10 -10 6 0 10 5 10 10 0 6 -4 10 -10 10 -5 0
-10 -4 -10 -10z"/>
<path d="M60 100 c0 -5 5 -10 10 -10 6 0 10 5 10 10 0 6 -4 10 -10 10 -5 0
-10 -4 -10 -10z"/>
<path d="M380 100 c0 -5 5 -10 10 -10 6 0 10 5 10 10 0 6 -4 10 -10 10 -5 0
-10 -4 -10 -10z"/>
</g>
</svg>
